PathFileType	4	(X/Y/Z)	C:/Users/opensim2020/Desktop/walking_exp_matlab/subject01_walking10_straight_03.trc	
DataRate	CameraRate	NumFrames	NumMarkers	Units	OrigDataRate	OrigDataStartFrame	OrigNumFrames	
100.00	100.00	6	43	mm	100.00	3008	317	
Frame#	Time	LFHD			RFHD			LBHD			RBHD			C7			T10			CLAV			STRN			RBAK			LSHO			LUPA			LELB			LFRM			LWRA			LWRB			LFIN			RSHO			RUPA			RELB			RFRM			RWRA			RWRB			RFIN			LASI			RASI			LPSI			RPSI			LTHI			LKNE			LTIB			LANK			LHEE			LTOE			RTHI			RKNE			RTIB			RANK			RHEE			RTOE			*39			*40			*41			*42			
		X1	Y1	Z1	X2	Y2	Z2	X3	Y3	Z3	X4	Y4	Z4	X5	Y5	Z5	X6	Y6	Z6	X7	Y7	Z7	X8	Y8	Z8	X9	Y9	Z9	X10	Y10	Z10	X11	Y11	Z11	X12	Y12	Z12	X13	Y13	Z13	X14	Y14	Z14	X15	Y15	Z15	X16	Y16	Z16	X17	Y17	Z17	X18	Y18	Z18	X19	Y19	Z19	X20	Y20	Z20	X21	Y21	Z21	X22	Y22	Z22	X23	Y23	Z23	X24	Y24	Z24	X25	Y25	Z25	X26	Y26	Z26	X27	Y27	Z27	X28	Y28	Z28	X29	Y29	Z29	X30	Y30	Z30	X31	Y31	Z31	X32	Y32	Z32	X33	Y33	Z33	X34	Y34	Z34	X35	Y35	Z35	X36	Y36	Z36	X37	Y37	Z37	X38	Y38	Z38	X39	Y39	Z39	X40	Y40	Z40	X41	Y41	Z41	X42	Y42	Z42	X43	Y43	Z43	

159	1.580	1355.62048	141.11110	1674.85852	1466.48279	165.32932	1681.04248	1375.52686	27.64034	1627.01318	1493.41187	50.59011	1632.41077	1405.49902	2.48394	1430.51538	1415.10535	-29.06981	1138.67786	1411.52258	148.08701	1366.41162	1405.84167	193.20494	1211.55603	1478.07092	-50.59294	1234.69946	1248.74097	96.99516	1399.24329	1154.23315	89.13014	1218.81921	1141.19678	98.72659	1066.15405	1116.72839	185.35973	988.67639	1131.48523	311.62085	932.66724	1111.70166	267.24478	898.16998	1097.43750	343.83023	864.62268	1560.99341	76.60561	1392.09924	1651.82056	0.69801	1194.71814	1656.88403	-4.41704	1071.16394	1693.17090	13.49520	953.68890	1700.32239	93.42169	837.49475	1719.43884	39.31464	836.00366	1729.13940	75.81590	757.67047	1309.42261	134.95003	929.55219	1525.28699	144.92332	936.56110	1371.96375	-49.18924	943.88812	1517.18860	-39.77402	944.90259	1269.15918	75.66364	598.20593	1286.77039	48.39722	464.18765	1287.02832	-27.16832	288.54538	1351.03589	-73.57151	74.83945	1406.23157	-118.18596	51.02719	1343.72168	72.81773	32.38858	1592.95557	168.07069	609.47437	1566.54504	229.57259	464.48279	1575.28857	213.86067	291.75885	1532.27490	240.91678	84.95391	1480.39111	204.63496	37.07823	1537.23474	383.23642	70.71864	1445.61792	150.59767	1714.59851	-3101.99243	1973.07202	1023.80646	-3140.66797	2012.50281	1022.12726			 
160	1.590	1355.94202	148.80836	1674.16418	1466.87622	173.15704	1680.28149	1375.91089	35.15311	1626.84851	1493.80981	58.08372	1632.18579	1405.98267	9.12573	1430.04321	1415.66577	-22.54059	1138.22302	1411.87561	154.74609	1365.84045	1406.06616	199.76193	1210.96936	1478.51526	-43.96417	1234.20667	1249.17371	103.42793	1398.81348	1154.48657	95.51297	1218.43323	1141.26782	105.46225	1065.81079	1116.91882	192.79362	988.99097	1131.82776	319.61865	934.28589	1112.09973	275.63141	899.33344	1097.81213	352.45248	866.44257	1561.44653	83.37974	1391.48865	1652.03247	6.88179	1194.23120	1656.83521	1.32400	1070.68030	1692.96387	18.71883	953.04382	1700.06006	98.15747	836.51105	1719.06787	43.95153	835.22559	1728.69836	80.25137	756.69788	1309.62244	141.50641	929.15088	1525.36133	151.72009	935.88184	1372.39038	-42.75368	943.53992	1517.48926	-32.72383	944.15326	1269.28479	79.49094	597.95734	1286.78235	51.34346	464.09995	1287.07983	-25.51692	288.95270	1351.10706	-73.38496	75.41823	1406.44629	-117.91635	51.88786	1343.52661	72.41568	32.67314	1596.06335	179.36475	611.08539	1566.36145	235.84727	464.23428	1575.64893	225.38942	291.54434	1532.71826	258.60153	85.40656	1480.48022	222.89131	35.94112	1536.37329	401.22211	74.68586	1445.96838	158.48131	1713.88489	-3101.99878	1973.02075	1023.41058	-3140.74658	2012.52100	1022.10693			 
161	1.600	1356.37842	156.42340	1673.50916	1467.27991	180.86549	1679.49133	1376.51025	42.74788	1626.61426	1494.32825	65.60748	1631.96863	1406.61328	15.83034	1429.59399	1416.36292	-16.04416	1137.97717	1412.30359	161.41638	1365.26685	1406.36121	206.34003	1210.40088	1479.06470	-37.24183	1233.64551	1249.65393	109.89140	1398.40417	1154.98181	101.62483	1217.99402	1141.50610	112.17162	1065.47107	1117.26721	200.18362	989.21576	1132.29724	327.51447	935.70728	1112.60034	283.78717	900.38885	1098.31543	360.94565	868.10486	1562.03711	90.24029	1390.85461	1652.36096	13.20118	1193.67871	1656.91309	7.24374	1070.14807	1692.85962	24.06241	952.38367	1699.82678	102.90816	835.51056	1718.83936	48.74828	834.45789	1728.33716	84.66144	755.72510	1309.51477	147.08881	928.28864	1525.47803	158.64543	935.20966	1372.94128	-36.24861	943.26105	1518.12671	-26.36303	944.11761	1269.35144	83.36375	597.77100	1286.83374	54.31744	464.03644	1287.16614	-23.75204	289.54156	1351.25903	-72.88546	75.86594	1406.65601	-117.64931	52.82937	1343.42639	72.51432	32.68710	1593.57593	179.55582	607.72015	1566.23840	242.17328	464.07364	1575.07739	236.15070	290.71051	1532.97632	275.24594	85.98662	1481.23633	240.59491	36.07044	1535.77588	418.31155	78.70161	1446.40271	166.37875	1713.15576	-3101.84082	1973.07300	1023.39081	-3140.74585	2012.53284	1022.08289			 
162	1.610	1356.92737	164.02684	1672.79639	1467.79541	188.61180	1678.68616	1377.15137	49.92123	1626.58069	1494.97144	73.12085	1631.73035	1407.36560	22.66118	1429.15308	1416.98950	-9.15594	1137.32971	1412.86096	168.13472	1364.69995	1406.77246	213.04077	1209.83801	1479.68933	-30.39841	1233.05310	1250.24939	116.32063	1397.98267	1155.49963	107.92892	1217.56531	1141.86902	118.98473	1065.06494	1117.68616	207.44083	989.36737	1132.88000	335.30438	936.97552	1113.17725	291.87228	901.29431	1098.90051	369.20676	869.52985	1562.68372	97.16875	1390.23853	1652.79358	19.63046	1193.10913	1657.17822	13.30435	1069.64404	1692.88232	29.64107	951.75311	1699.63306	107.87218	834.44702	1718.68640	53.69136	833.63605	1728.02917	89.20010	754.74445	1309.46204	153.66385	927.79675	1525.62671	165.61801	934.47968	1373.59509	-29.64701	943.02197	1518.64966	-19.27459	943.47058	1269.44116	87.28876	597.65540	1286.96289	57.26492	464.10809	1287.33398	-22.02461	290.06088	1351.39441	-72.57886	76.76048	1406.95190	-117.23283	53.71138	1343.33545	72.57912	32.67747	1596.84290	191.26344	609.42041	1566.03918	248.50705	463.66281	1575.69006	247.00294	290.92233	1533.17358	290.84821	86.64140	1482.16199	256.23318	36.77769	1535.57056	434.48868	82.70296	1446.95886	174.29393	1712.44897	-3101.90479	1973.03162	1024.03357	-3140.61450	2012.41992	1022.08838			 
163	1.620	1357.56555	171.64528	1672.14209	1468.42407	196.34247	1677.90540	1377.94836	57.33230	1626.44739	1495.71326	80.67939	1631.46362	1408.27197	29.52775	1428.70203	1417.74182	-2.40001	1136.83215	1413.49219	174.93860	1364.14453	1407.21533	219.78230	1209.29370	1480.44788	-23.57626	1232.48169	1250.98010	122.81677	1397.55249	1156.10681	114.34782	1217.17517	1142.34717	125.77441	1064.59326	1118.26404	214.69199	989.47876	1133.50793	343.00034	938.07581	1113.81165	299.81857	902.10583	1099.70667	377.28577	870.74872	1563.42578	104.05941	1389.58398	1653.38098	26.34890	1192.54712	1657.53284	19.58298	1069.12512	1693.04089	35.31286	951.13354	1699.51636	112.93665	833.35193	1718.68665	58.77195	832.80768	1727.68457	93.71286	753.65118	1309.86572	159.97572	927.21655	1525.77527	172.68704	933.73877	1374.35510	-22.96394	942.67981	1519.45129	-12.48433	943.11462	1269.71265	91.17191	597.49097	1286.97131	60.37170	463.95978	1287.53601	-20.32690	290.71259	1351.67383	-72.16853	77.67608	1406.99707	-117.03802	54.64761	1343.28064	72.60140	32.65962	1596.32263	194.50406	607.89490	1565.89075	255.13635	463.52115	1575.95239	257.35101	290.92749	1533.78479	305.67316	87.60477	1482.04077	272.83414	35.74795	1535.23779	449.36417	86.01822	1447.58435	182.18333	1711.74792	-3101.87500	1973.22949	1023.53760	-3140.61670	2012.60278	1022.02069			 
164	1.630	1358.35889	179.24870	1671.47656	1469.11523	204.05559	1677.12219	1378.85730	64.75642	1626.19592	1496.59473	88.27087	1631.16711	1409.17749	36.44110	1428.15259	1418.56250	4.40320	1136.28918	1414.18530	181.76770	1363.57947	1407.77197	226.58418	1208.75159	1481.28699	-16.59445	1231.86450	1251.79480	129.43307	1397.15283	1156.85242	120.66341	1216.79749	1143.06274	132.73952	1064.11719	1118.95764	221.91449	989.51819	1134.24573	350.58011	939.02466	1114.62415	307.53580	902.83240	1100.62561	385.25113	871.91705	1564.27173	111.10024	1388.92749	1654.09155	33.07752	1191.95898	1657.94470	25.98763	1068.56128	1693.30884	41.16982	950.50433	1699.51526	118.06345	832.25018	1718.69897	63.96941	831.96686	1727.63330	98.54033	752.67163	1310.17505	166.52934	926.68481	1526.03687	179.84702	933.01575	1375.22180	-16.21235	942.43512	1520.20544	-5.10672	942.49701	1269.89771	95.17899	597.32654	1287.24121	62.97647	464.20673	1287.67798	-18.56973	291.30893	1351.62097	-71.94444	78.48660	1407.19409	-116.65864	56.05485	1343.21265	72.66270	32.61023	1597.08252	201.62816	607.42877	1565.79041	261.82458	463.22076	1576.31360	267.20532	291.06223	1534.12354	319.27405	88.33457	1483.00415	286.24628	36.58928	1535.29065	463.11737	89.04586	1448.33496	190.04599	1711.04968	-3101.80322	1973.11743	1023.44525	-3140.60864	2012.55688	1022.00293			 
